# xmcd
#
# Track frame offsets:
#	150
#	32845
#	68397
#	106587
#	131840
#	166942
#	201194
#	236214
#	261888
#	280108
#
# Disc length: 4192 seconds
#
# Revision: 2
# Processed by: cddbd v1.5.2PL0 Copyright (c) Steve Scherf et al.
# Submitted via: EZCDAudioConverter 2.1.7.1
#
DISCID=87105e0a
DTITLE=Jamiroquai - High Times 2/2
DYEAR=2006
DGENRE=
TTITLE0=Emergency On Planet Earth [Masters At Work Remix]
TTITLE1=Space Cowboy [David Morales Remix]
TTITLE2=Love Foolosophy [Knee Deep Remix]
TTITLE3=Little L [Bob Sinclair Remix]
TTITLE4=Cosmic Girl [Tom Belton Remix]
TTITLE5=Dynamite [Restless Souls Remix]
TTITLE6=Seven Days In Sunny June [Ashley Beedle Heavy Disco Vocal Remix]
TTITLE7=Virtual Insanity [Saleem Remi Remix]
TTITLE8=You Give Me Something [Blacksmith R&B Remix]
TTITLE9=Supersonic [Restless Souls Remix]
EXTD=
EXTT0=
EXTT1=
EXTT2=
EXTT3=
EXTT4=
EXTT5=
EXTT6=
EXTT7=
EXTT8=
EXTT9=
PLAYORDER=
